<mxfile host="app.diagrams.net" agent="Mozilla/5.0 (X11; Linux x86_64; rv:135.0) Gecko/20100101 Firefox/135.0" version="26.1.1">
  <diagram name="Seite-1" id="N4yoc7C2YQBJx4v5mTLj">
    <mxGraphModel dx="1434" dy="766" grid="1" gridSize="10" guides="1" tooltips="1" connect="1" arrows="1" fold="1" page="0" pageScale="1" pageWidth="827" pageHeight="1169" math="0" shadow="0">
      <root>
        <mxCell id="0" />
        <mxCell id="1" parent="0" />
        <mxCell id="klTQxOPNnD1f2kZJVhqO-5" style="rounded=0;orthogonalLoop=1;jettySize=auto;html=1;exitX=0.5;exitY=1;exitDx=0;exitDy=0;endArrow=none;startFill=0;" edge="1" parent="1" source="klTQxOPNnD1f2kZJVhqO-1" target="klTQxOPNnD1f2kZJVhqO-2">
          <mxGeometry relative="1" as="geometry" />
        </mxCell>
        <mxCell id="klTQxOPNnD1f2kZJVhqO-6" style="rounded=0;orthogonalLoop=1;jettySize=auto;html=1;exitX=0.5;exitY=1;exitDx=0;exitDy=0;entryX=0.5;entryY=0;entryDx=0;entryDy=0;endArrow=none;startFill=0;" edge="1" parent="1" source="klTQxOPNnD1f2kZJVhqO-1" target="klTQxOPNnD1f2kZJVhqO-3">
          <mxGeometry relative="1" as="geometry" />
        </mxCell>
        <mxCell id="klTQxOPNnD1f2kZJVhqO-7" style="rounded=0;orthogonalLoop=1;jettySize=auto;html=1;exitX=0.5;exitY=1;exitDx=0;exitDy=0;endArrow=none;startFill=0;" edge="1" parent="1" source="klTQxOPNnD1f2kZJVhqO-1" target="klTQxOPNnD1f2kZJVhqO-4">
          <mxGeometry relative="1" as="geometry" />
        </mxCell>
        <mxCell id="klTQxOPNnD1f2kZJVhqO-14" style="rounded=0;orthogonalLoop=1;jettySize=auto;html=1;exitX=1;exitY=0.5;exitDx=0;exitDy=0;entryX=0;entryY=0.5;entryDx=0;entryDy=0;endArrow=none;startFill=0;" edge="1" parent="1" source="klTQxOPNnD1f2kZJVhqO-1" target="klTQxOPNnD1f2kZJVhqO-13">
          <mxGeometry relative="1" as="geometry" />
        </mxCell>
        <mxCell id="klTQxOPNnD1f2kZJVhqO-1" value="Lieferung" style="rounded=0;whiteSpace=wrap;html=1;fontStyle=1;fillColor=#ffe6cc;strokeColor=#d79b00;" vertex="1" parent="1">
          <mxGeometry x="200" y="360" width="120" height="40" as="geometry" />
        </mxCell>
        <mxCell id="klTQxOPNnD1f2kZJVhqO-2" value="Absender-Adresse" style="ellipse;whiteSpace=wrap;html=1;fillColor=#f5f5f5;strokeColor=#666666;fontColor=#333333;" vertex="1" parent="1">
          <mxGeometry x="60" y="440" width="120" height="40" as="geometry" />
        </mxCell>
        <mxCell id="klTQxOPNnD1f2kZJVhqO-3" value="EmpfÃ¤nger-Adresse" style="ellipse;whiteSpace=wrap;html=1;fillColor=#f5f5f5;strokeColor=#666666;fontColor=#333333;" vertex="1" parent="1">
          <mxGeometry x="200" y="440" width="120" height="40" as="geometry" />
        </mxCell>
        <mxCell id="klTQxOPNnD1f2kZJVhqO-4" value="&lt;div&gt;Beschreibung&lt;/div&gt;&lt;div&gt;des Inhalts&lt;/div&gt;" style="ellipse;whiteSpace=wrap;html=1;fillColor=#f5f5f5;strokeColor=#666666;fontColor=#333333;" vertex="1" parent="1">
          <mxGeometry x="340" y="440" width="120" height="40" as="geometry" />
        </mxCell>
        <mxCell id="klTQxOPNnD1f2kZJVhqO-11" style="rounded=0;orthogonalLoop=1;jettySize=auto;html=1;exitX=0.5;exitY=1;exitDx=0;exitDy=0;endArrow=none;startFill=0;" edge="1" parent="1" source="klTQxOPNnD1f2kZJVhqO-8" target="klTQxOPNnD1f2kZJVhqO-9">
          <mxGeometry relative="1" as="geometry" />
        </mxCell>
        <mxCell id="klTQxOPNnD1f2kZJVhqO-12" style="rounded=0;orthogonalLoop=1;jettySize=auto;html=1;entryX=0.5;entryY=0;entryDx=0;entryDy=0;endArrow=none;startFill=0;exitX=0.5;exitY=1;exitDx=0;exitDy=0;" edge="1" parent="1" source="klTQxOPNnD1f2kZJVhqO-8" target="klTQxOPNnD1f2kZJVhqO-10">
          <mxGeometry relative="1" as="geometry" />
        </mxCell>
        <mxCell id="klTQxOPNnD1f2kZJVhqO-8" value="Frachtflug" style="rounded=0;whiteSpace=wrap;html=1;fontStyle=1;fillColor=#ffe6cc;strokeColor=#d79b00;" vertex="1" parent="1">
          <mxGeometry x="650" y="360" width="120" height="40" as="geometry" />
        </mxCell>
        <mxCell id="klTQxOPNnD1f2kZJVhqO-9" value="Startzeit" style="ellipse;whiteSpace=wrap;html=1;fillColor=#f5f5f5;strokeColor=#666666;fontColor=#333333;" vertex="1" parent="1">
          <mxGeometry x="580" y="440" width="120" height="40" as="geometry" />
        </mxCell>
        <mxCell id="klTQxOPNnD1f2kZJVhqO-10" value="Endezeit" style="ellipse;whiteSpace=wrap;html=1;fillColor=#f5f5f5;strokeColor=#666666;fontColor=#333333;" vertex="1" parent="1">
          <mxGeometry x="720" y="440" width="120" height="40" as="geometry" />
        </mxCell>
        <mxCell id="klTQxOPNnD1f2kZJVhqO-15" style="rounded=0;orthogonalLoop=1;jettySize=auto;html=1;exitX=1;exitY=0.5;exitDx=0;exitDy=0;endArrow=none;startFill=0;" edge="1" parent="1" source="klTQxOPNnD1f2kZJVhqO-13" target="klTQxOPNnD1f2kZJVhqO-8">
          <mxGeometry relative="1" as="geometry" />
        </mxCell>
        <mxCell id="klTQxOPNnD1f2kZJVhqO-13" value="&lt;div&gt;Transportierte&lt;/div&gt;&lt;div&gt;Lieferungen&lt;/div&gt;" style="rhombus;whiteSpace=wrap;html=1;fillColor=#e1d5e7;strokeColor=#9673a6;" vertex="1" parent="1">
          <mxGeometry x="400" y="350" width="160" height="60" as="geometry" />
        </mxCell>
      </root>
    </mxGraphModel>
  </diagram>
</mxfile>
